<svg width="15" height="23" viewBox="0 0 15 23" fill="none" xmlns="http://www.w3.org/2000/svg">
<path fill-rule="evenodd" clip-rule="evenodd" d="M2.55025 2.55025C3.86301 1.2375 5.64348 0.5 7.5 0.5C9.35652 0.5 11.137 1.2375 12.4497 2.55025C13.7625 3.86301 14.5 5.64349 14.5 7.5C14.5 9.39002 13.7484 11.5835 12.5679 13.3077C11.4039 15.0078 9.64079 16.5 7.5 16.5C5.35921 16.5 3.59614 15.0078 2.43213 13.3077C1.25157 11.5835 0.5 9.39002 0.5 7.5C0.5 5.64348 1.2375 3.86301 2.55025 2.55025ZM9.98887 13.2972C10.313 12.9802 10.625 12.6052 10.9176 12.1778C11.9086 10.7305 12.5 8.92398 12.5 7.5C12.5 6.17392 11.9732 4.90215 11.0355 3.96447C10.6729 3.60186 10.2604 3.3007 9.81401 3.06769C9.83514 3.13613 9.85571 3.20544 9.87574 3.27553C10.2836 4.70316 10.5 6.5815 10.5 8.5C10.5 10.2326 10.3235 11.9325 9.98887 13.2972ZM5.18598 3.06769C5.16486 3.13613 5.14429 3.20544 5.12426 3.27553C4.71637 4.70316 4.5 6.5815 4.5 8.5C4.5 10.2326 4.67648 11.9325 5.01113 13.2972C4.68697 12.9802 4.37499 12.6052 4.08237 12.1778C3.09143 10.7305 2.5 8.92398 2.5 7.5C2.5 6.17392 3.02678 4.90215 3.96447 3.96447C4.32707 3.60186 4.73964 3.3007 5.18598 3.06769ZM5.08579 18.0858C5.46086 17.7107 5.96957 17.5 6.5 17.5H8.5C9.03043 17.5 9.53914 17.7107 9.91421 18.0858C10.2893 18.4609 10.5 18.9696 10.5 19.5V20.5C10.5 21.0304 10.2893 21.5391 9.91421 21.9142C9.53914 22.2893 9.03043 22.5 8.5 22.5H6.5C5.96957 22.5 5.46086 22.2893 5.08579 21.9142C4.71071 21.5391 4.5 21.0304 4.5 20.5V19.5C4.5 18.9696 4.71071 18.4609 5.08579 18.0858ZM6.5 19.5V20.5H8.5V19.5H6.5ZM7.04731 3.82497C7.19878 3.29484 7.35903 2.92408 7.5 2.69047C7.64097 2.92408 7.80122 3.29484 7.95269 3.82497C8.29494 5.02286 8.5 6.70547 8.5 8.5C8.5 10.2945 8.29494 11.9771 7.95269 13.175C7.80122 13.7052 7.64096 14.0759 7.5 14.3095C7.35903 14.0759 7.19878 13.7052 7.04731 13.175C6.70506 11.9771 6.5 10.2945 6.5 8.5C6.5 6.70547 6.70506 5.02286 7.04731 3.82497Z" fill="#FDFDFD"/>
</svg>
