<svg width="22" height="21" viewBox="0 0 22 21" fill="none" xmlns="http://www.w3.org/2000/svg">
<path fill-rule="evenodd" clip-rule="evenodd" d="M20 1.50001C20 1.08822 19.7476 0.718541 19.3641 0.56863C18.9805 0.418719 18.5443 0.519233 18.2651 0.821866L15.5684 3.74433C14.2291 2.95392 12.6673 2.50015 11.0008 2.50001L11.0015 2.50001L11 3.49985V2.50001H11.0008C9.4453 2.49776 7.92109 2.90025 6.57549 3.66128L3.70711 0.792901C3.42111 0.506903 2.99099 0.421348 2.61732 0.576129C2.24364 0.73091 2 1.09555 2 1.50001V11.5C2 12.1784 2.0766 12.8489 2.225 13.5H1C0.447715 13.5 0 13.9477 0 14.5C0 15.0523 0.447715 15.5 1 15.5H2.93773C3.00872 15.6431 3.08355 15.7844 3.16215 15.9236L1.29289 17.7929C0.902369 18.1834 0.902369 18.8166 1.29289 19.2071C1.68342 19.5976 2.31658 19.5976 2.70711 19.2071L4.34988 17.5643C4.44275 17.6662 4.53815 17.7661 4.63604 17.864C6.32387 19.5518 8.61305 20.5 11 20.5C13.3869 20.5 15.6761 19.5518 17.364 17.864C17.4618 17.7661 17.5572 17.6662 17.6501 17.5643L19.2929 19.2071C19.6834 19.5976 20.3166 19.5976 20.7071 19.2071C21.0976 18.8166 21.0976 18.1834 20.7071 17.7929L18.8378 15.9236C18.9164 15.7844 18.9913 15.6431 19.0623 15.5H21C21.5523 15.5 22 15.0523 22 14.5C22 13.9477 21.5523 13.5 21 13.5H19.775C19.9234 12.8489 20 12.1784 20 11.5V1.50001ZM16 13.5H17.7082C17.9 12.8567 18 12.1835 18 11.5V4.05837L16.4629 5.72415C16.1178 6.09817 15.5468 6.15334 15.1365 5.85232C13.9771 5.00181 12.549 4.50001 11 4.50001L10.9985 4.50001C9.57011 4.49782 8.17562 4.93497 7.00412 5.75218C6.60665 6.02944 6.06757 5.9818 5.72489 5.63911L4 3.91422V11.5C4 12.1835 4.09996 12.8567 4.29178 13.5H6C6.40446 13.5 6.7691 13.7436 6.92388 14.1173C7.07866 14.491 6.9931 14.9211 6.70711 15.2071L5.76602 16.1482C5.85752 16.2512 5.95228 16.3518 6.05025 16.4498C7.36301 17.7625 9.14348 18.5 11 18.5C12.8565 18.5 14.637 17.7625 15.9497 16.4498C16.0477 16.3518 16.1425 16.2512 16.234 16.1482L15.2929 15.2071C15.0069 14.9211 14.9213 14.491 15.0761 14.1173C15.2309 13.7436 15.5955 13.5 16 13.5ZM11 12.5C10.4696 12.5 9.96086 12.7107 9.58579 13.0858C9.21071 13.4609 9 13.9696 9 14.5C9 15.0304 9.21071 15.5391 9.58579 15.9142C9.96086 16.2893 10.4696 16.5 11 16.5C11.5304 16.5 12.0391 16.2893 12.4142 15.9142C12.7893 15.5391 13 15.0304 13 14.5C13 13.9696 12.7893 13.4609 12.4142 13.0858C12.0391 12.7107 11.5304 12.5 11 12.5ZM8 8.50001C8.55229 8.50001 9 8.94772 9 9.50001V9.51001C9 10.0623 8.55229 10.51 8 10.51C7.44772 10.51 7 10.0623 7 9.51001V9.50001C7 8.94772 7.44772 8.50001 8 8.50001ZM15 9.50001C15 8.94772 14.5523 8.50001 14 8.50001C13.4477 8.50001 13 8.94772 13 9.50001V9.51001C13 10.0623 13.4477 10.51 14 10.51C14.5523 10.51 15 10.0623 15 9.51001V9.50001Z" fill="#EF4870"/>
</svg>
