<svg width="24" height="19" viewBox="0 0 24 19" fill="none" xmlns="http://www.w3.org/2000/svg">
<path fill-rule="evenodd" clip-rule="evenodd" d="M4.50942 2.62064C4.5511 2.57897 4.60762 2.55556 4.66656 2.55556H19.3332C19.3922 2.55556 19.4487 2.57897 19.4904 2.62064C19.532 2.66232 19.5554 2.71884 19.5554 2.77778V12.5556C19.5554 12.6145 19.532 12.671 19.4904 12.7127C19.4487 12.7544 19.3922 12.7778 19.3332 12.7778H4.66656C4.60762 12.7778 4.5511 12.7544 4.50942 12.7127C4.46775 12.671 4.44434 12.6145 4.44434 12.5556V2.77778C4.44434 2.71884 4.46775 2.66232 4.50942 2.62064ZM4.66656 0.555557C4.07719 0.555557 3.51196 0.789684 3.09521 1.20643C2.67846 1.62318 2.44434 2.18841 2.44434 2.77778V12.5556C2.44434 13.1449 2.67846 13.7102 3.09521 14.1269C3.51196 14.5437 4.07719 14.7778 4.66656 14.7778H19.3332C19.9226 14.7778 20.4878 14.5437 20.9046 14.1269C21.3213 13.7102 21.5554 13.1449 21.5554 12.5556V2.77778C21.5554 2.18841 21.3213 1.62318 20.9046 1.20643C20.4878 0.789684 19.9226 0.555557 19.3332 0.555557H4.66656ZM1 16.4444C0.447715 16.4444 0 16.8922 0 17.4444C0 17.9967 0.447715 18.4444 1 18.4444H23C23.5523 18.4444 24 17.9967 24 17.4444C24 16.8922 23.5523 16.4444 23 16.4444H1Z" fill="#EF4870"/>
</svg>
