<svg width="24" height="23" viewBox="0 0 24 23" fill="none" xmlns="http://www.w3.org/2000/svg">
<path fill-rule="evenodd" clip-rule="evenodd" d="M12.5831 1.9235C13.0317 1.60146 13.1344 0.976671 12.8124 0.528C12.4903 0.0793291 11.8655 -0.0233214 11.4169 0.298724C10.8982 0.671031 10.4779 1.16401 10.1924 1.73509C9.90994 2.29991 9.76772 2.92434 9.77758 3.55556C9.76772 4.18677 9.90994 4.8112 10.1924 5.37603C10.4779 5.94711 10.8982 6.44009 11.4169 6.81239C11.8655 7.13444 12.4903 7.03179 12.8124 6.58312C13.1344 6.13445 13.0317 5.50966 12.5831 5.18761C12.3281 5.00461 12.1216 4.7623 11.9812 4.4816C11.8409 4.20091 11.771 3.89026 11.7775 3.5765C11.7778 3.56254 11.7778 3.54858 11.7775 3.53462C11.771 3.22086 11.8409 2.91021 11.9812 2.62951C12.1216 2.34881 12.3281 2.1065 12.5831 1.9235ZM2.06509 10.7318C2.10676 10.6901 2.16329 10.6667 2.22222 10.6667H21.7778C21.8367 10.6667 21.8932 10.6901 21.9349 10.7318C21.9766 10.7734 22 10.83 22 10.8889V11.5C22 11.7439 21.8793 12.241 21.5712 12.9629C21.2783 13.6495 20.8621 14.4345 20.384 15.2101C19.9063 15.9851 19.3787 16.7316 18.8701 17.3443C18.3471 17.9746 17.8967 18.3992 17.5811 18.5965C17.2887 18.7792 17.1111 19.0997 17.1111 19.4444V20.6667C17.1111 20.7256 17.0877 20.7821 17.046 20.8238C17.0044 20.8655 16.9478 20.8889 16.8889 20.8889H7.11111C7.05217 20.8889 6.99565 20.8655 6.95398 20.8238C6.9123 20.7821 6.88889 20.7256 6.88889 20.6667V19.4444C6.88889 19.0996 6.71121 18.7791 6.41875 18.5964C5.59846 18.0839 4.47678 16.7309 3.52708 15.1594C3.06639 14.3971 2.67397 13.6291 2.40011 12.9565C2.11392 12.2536 2 11.7569 2 11.5V10.8889C2 10.83 2.02341 10.7734 2.06509 10.7318ZM2.22222 8.66667C1.63285 8.66667 1.06762 8.9008 0.650874 9.31754C0.234126 9.73429 0 10.2995 0 10.8889V11.5C0 12.1597 0.23945 12.9534 0.547757 13.7107C0.868402 14.4982 1.3116 15.3603 1.81539 16.1939C2.67185 17.611 3.79104 19.0911 4.88889 19.9589V20.6667C4.88889 21.256 5.12301 21.8213 5.53976 22.238C5.95651 22.6548 6.52174 22.8889 7.11111 22.8889H16.8889C17.4783 22.8889 18.0435 22.6548 18.4602 22.238C18.877 21.8213 19.1111 21.256 19.1111 20.6667V19.9517C19.5515 19.5915 19.994 19.1219 20.4092 18.6216C20.9873 17.925 21.5686 17.0999 22.0865 16.2596C22.6041 15.4199 23.0703 14.5458 23.4108 13.7479C23.7361 12.9854 24 12.1728 24 11.5V10.8889C24 10.2995 23.7659 9.73429 23.3491 9.31754C22.9324 8.9008 22.3671 8.66667 21.7778 8.66667H2.22222ZM17.7013 0.528C18.0233 0.976671 17.9207 1.60146 17.472 1.9235C17.217 2.1065 17.0105 2.34881 16.8701 2.62951C16.7298 2.91021 16.6599 3.22086 16.6664 3.53462C16.6667 3.54858 16.6667 3.56254 16.6664 3.5765C16.6599 3.89026 16.7298 4.20091 16.8701 4.4816C17.0105 4.7623 17.217 5.00461 17.472 5.18761C17.9207 5.50966 18.0233 6.13445 17.7013 6.58312C17.3792 7.03179 16.7544 7.13444 16.3058 6.81239C15.7871 6.44009 15.3668 5.94711 15.0813 5.37603C14.7989 4.8112 14.6566 4.18677 14.6665 3.55556C14.6566 2.92434 14.7989 2.29991 15.0813 1.73509C15.3668 1.16401 15.7871 0.671031 16.3058 0.298724C16.7544 -0.0233214 17.3792 0.0793291 17.7013 0.528ZM7.69416 1.9235C8.14283 1.60146 8.24548 0.976671 7.92344 0.528C7.60139 0.0793291 6.97661 -0.0233214 6.52794 0.298724C6.00924 0.671031 5.58897 1.16401 5.30344 1.73509C5.02102 2.29991 4.8788 2.92434 4.88866 3.55556C4.8788 4.18677 5.02102 4.8112 5.30344 5.37603C5.58897 5.94711 6.00924 6.44009 6.52794 6.81239C6.97661 7.13444 7.60139 7.03179 7.92344 6.58312C8.24548 6.13445 8.14283 5.50966 7.69416 5.18761C7.43921 5.00461 7.23264 4.7623 7.09229 4.4816C6.95194 4.20091 6.88204 3.89026 6.88861 3.5765C6.8889 3.56254 6.8889 3.54858 6.88861 3.53462C6.88204 3.22085 6.95194 2.91021 7.09229 2.62951C7.23264 2.34881 7.43921 2.1065 7.69416 1.9235Z" fill="#EF4870"/>
</svg>
