<svg width="24" height="25" viewBox="0 0 24 25" fill="none" xmlns="http://www.w3.org/2000/svg">
<path fill-rule="evenodd" clip-rule="evenodd" d="M7.92433 0.915497C8.24637 1.36417 8.14372 1.98896 7.69505 2.311C7.44005 2.49404 7.23344 2.73639 7.09306 3.01715C6.95269 3.2979 6.88277 3.6086 6.88934 3.92242C6.88963 3.93638 6.88963 3.95035 6.88934 3.96431C6.88277 4.27813 6.95269 4.58884 7.09306 4.86959C7.23344 5.15034 7.44005 5.3927 7.69505 5.57573C8.14372 5.89778 8.24637 6.52257 7.92433 6.97124C7.60228 7.41991 6.97749 7.52256 6.52882 7.20051C6.01008 6.82817 5.58977 6.33514 5.30421 5.76401C5.02177 5.19913 4.87953 4.57464 4.8894 3.94337C4.87953 3.31209 5.02177 2.6876 5.30421 2.12272C5.58977 1.55159 6.01008 1.05856 6.52882 0.686221C6.97749 0.364176 7.60228 0.466826 7.92433 0.915497ZM13.823 14.7223C12.2474 14.7035 10.9613 15.1225 10.1685 15.7358C8.93473 16.6901 7.17703 17.1877 5.27832 17.1672C4.10763 17.1799 2.99054 16.9955 2.01682 16.6286C2.12715 18.1399 2.7766 19.5675 3.85526 20.6461C5.04317 21.834 6.65431 22.5014 8.33427 22.5014H10.779C12.459 22.5014 14.0701 21.834 15.258 20.6461C15.9988 19.9053 16.5372 18.9999 16.8375 18.0159C16.8421 17.9988 16.8472 17.9818 16.8528 17.9649C17.0241 17.3864 17.1133 16.7814 17.1133 16.1671V15.4745C16.3174 15.007 15.1869 14.7063 13.8469 14.7223H13.823ZM18.4095 19.5191C17.9971 20.4578 17.4113 21.3213 16.6722 22.0604C15.1093 23.6233 12.9894 24.5014 10.779 24.5014H8.33427C6.12388 24.5014 4.00403 23.6233 2.44105 22.0604C0.878072 20.4974 0 18.3775 0 16.1671V14.9539V14.9343V10.0553C0 9.50297 0.447715 9.05525 1 9.05525H18.1133C18.6656 9.05525 19.1133 9.50297 19.1133 10.0553V10.2823C19.4175 10.268 19.7236 10.2834 20.0269 10.329C20.7829 10.4427 21.4994 10.7403 22.1134 11.1958C22.7274 11.6512 23.2202 12.2506 23.5483 12.941C23.8764 13.6315 24.0299 14.3921 23.9953 15.1558C23.9606 15.9195 23.7389 16.663 23.3496 17.3209C22.9603 17.9788 22.4153 18.5311 21.7626 18.9291C21.1099 19.3271 20.3694 19.5586 19.6062 19.6034C19.2038 19.627 18.8017 19.5983 18.4095 19.5191ZM19.1133 12.2862C19.3181 12.2693 19.5248 12.276 19.7295 12.3068C20.1616 12.3717 20.571 12.5418 20.9219 12.8021C21.2728 13.0624 21.5544 13.4049 21.7419 13.7995C21.9294 14.1941 22.0171 14.6287 21.9973 15.0651C21.9775 15.5016 21.8508 15.9264 21.6283 16.3024C21.4059 16.6784 21.0944 16.994 20.7214 17.2215C20.3484 17.4489 19.9252 17.5812 19.4891 17.6068C19.3223 17.6166 19.1556 17.6106 18.9911 17.5894C19.0719 17.1228 19.1133 16.6471 19.1133 16.1671V14.9553V14.9357V12.2862ZM17.1133 11.5577V13.2673C16.1356 12.8962 15.0124 12.7096 13.835 12.7223C11.9363 12.7018 10.1786 13.1995 8.94482 14.1538C8.152 14.767 6.86587 15.1861 5.29027 15.1672H5.26638C3.92643 15.1832 2.79585 14.8826 2 14.4151V11.0553H17.1133V11.4156C17.1099 11.4626 17.1099 11.5101 17.1133 11.5577ZM12.5845 2.311C13.0331 1.98896 13.1358 1.36417 12.8137 0.915497C12.4917 0.466826 11.8669 0.364176 11.4182 0.686221C10.8995 1.05856 10.4792 1.55159 10.1936 2.12272C9.91117 2.6876 9.76894 3.31209 9.7788 3.94337C9.76894 4.57464 9.91117 5.19913 10.1936 5.76401C10.4792 6.33514 10.8995 6.82817 11.4182 7.20051C11.8669 7.52256 12.4917 7.41991 12.8137 6.97124C13.1358 6.52257 13.0331 5.89778 12.5845 5.57573C12.3295 5.3927 12.1228 5.15034 11.9825 4.86959C11.8421 4.58883 11.7722 4.27813 11.7787 3.96431C11.779 3.95035 11.779 3.93638 11.7787 3.92242C11.7722 3.6086 11.8421 3.2979 11.9825 3.01715C12.1228 2.73639 12.3295 2.49403 12.5845 2.311Z" fill="#EF4870"/>
</svg>
