<svg width="29" height="30" viewBox="0 0 29 30" fill="none" xmlns="http://www.w3.org/2000/svg">
<path d="M3.16829 7.59905C3.64535 7.45203 4.17242 7.62068 4.47319 8.03423C4.80737 8.49373 4.76783 9.12588 4.379 9.54015L3.31393 10.3291C2.80927 10.7484 2.51569 11.3692 2.51184 12.0253V24.0567C2.52624 26.0165 4.11531 27.5997 6.07522 27.6069H12.1238V27.6332C12.7773 27.6332 13.3072 28.163 13.3072 28.8166C13.3072 29.4702 12.7773 30 12.1238 30H6.07522C2.80306 29.9928 0.152251 27.342 0.14502 24.0698V12.0253C0.16594 10.6335 0.819244 9.3269 1.92013 8.47509L3.0115 7.65985L3.16829 7.59905ZM10.9141 1.20369C12.9107 -0.401229 15.7549 -0.401229 17.7515 1.20369L26.8375 8.44879C27.9141 9.31471 28.5462 10.6174 28.56 11.999L28.5469 24.0567C28.5469 27.3318 25.8918 29.9869 22.6167 29.9869H19.9869C18.4016 29.9869 17.1145 28.7056 17.1072 27.1204V21.6767L17.0949 21.5396C17.0304 21.1838 16.719 20.914 16.3446 20.914H12.3999C12.1953 20.914 11.9993 20.9962 11.8559 21.142C11.7125 21.2879 11.6337 21.4853 11.6372 21.6898V23.7674C11.6372 24.421 11.1074 24.9508 10.4538 24.9508C9.80026 24.9508 9.27043 24.421 9.27043 23.7674V21.6898C9.27043 20.8564 9.60152 20.057 10.1909 19.4677C10.7802 18.8783 11.5796 18.5472 12.413 18.5472H16.3577C18.0882 18.5545 19.4872 19.9593 19.4872 21.6898V27.1204C19.4872 27.3963 19.7109 27.62 19.9869 27.62H22.6824C24.6431 27.62 26.2326 26.0305 26.2326 24.0698V12.0253C26.223 11.3581 25.914 10.7305 25.3911 10.3159L16.3051 3.07085C15.1594 2.12758 13.5062 2.12758 12.3604 3.07085L9.44136 5.25358C8.90034 5.6421 8.14681 5.51847 7.75829 4.97745C7.36977 4.43643 7.4934 3.6829 8.03442 3.29438L10.9141 1.20369Z" fill="#251E1E"/>
</svg>
