<svg width="29" height="30" viewBox="0 0 29 30" fill="none" xmlns="http://www.w3.org/2000/svg">
<path d="M10.0967 28.16V23.5734C10.0967 22.4026 11.0528 21.4534 12.2322 21.4534H16.5434C17.1098 21.4534 17.653 21.6768 18.0535 22.0744C18.4539 22.4719 18.6789 23.0112 18.6789 23.5734V28.16C18.6753 28.6468 18.8676 29.1148 19.2131 29.4603C19.5585 29.8057 20.0286 30 20.5189 30H23.4603C24.834 30.0035 26.1526 29.4642 27.1253 28.5012C28.0979 27.5381 28.6445 26.2305 28.6445 24.8667V11.8003C28.6445 10.6987 28.1526 9.65376 27.3014 8.947L17.2956 1.0138C15.555 -0.377157 13.0612 -0.332247 11.3726 1.12047L1.59505 8.947C0.703642 9.63292 0.17086 10.6809 0.144531 11.8003V24.8534C0.144531 27.6958 2.4656 30 5.32879 30H8.20296C9.22136 30 10.049 29.1843 10.0564 28.1733L10.0967 28.16Z" fill="#EF4870"/>
</svg>
