<svg width="32" height="30" viewBox="0 0 32 30" fill="none" xmlns="http://www.w3.org/2000/svg">
<path d="M10.0607 0.000244203C11.0554 0.0304958 12.0185 0.204177 12.9517 0.52154H13.0448C13.108 0.55154 13.1554 0.584697 13.1869 0.614697C13.5359 0.7268 13.8659 0.853114 14.1817 1.0268L14.7816 1.29521C15.0185 1.42153 15.3027 1.65678 15.4606 1.7531C15.6185 1.84626 15.7922 1.94257 15.9343 2.05151C17.6884 0.711011 19.8184 -0.0152929 22.0131 0.000244203C23.0094 0.000244203 24.0041 0.14102 24.9499 0.458383C30.7777 2.35309 32.8777 8.74772 31.1235 14.3371C30.1288 17.1934 28.5025 19.8002 26.3725 21.9301C23.3236 24.8827 19.9779 27.5037 16.3764 29.7616L15.9816 30L15.5711 29.7458C11.957 27.5037 8.59227 24.8827 5.51496 21.9143C3.3992 19.7844 1.77133 17.1934 0.760825 14.3371C-1.02336 8.74772 1.07661 2.35309 6.96756 0.425226C7.42545 0.267334 7.89755 0.15681 8.37123 0.0952316H8.5607C9.00437 0.0304958 9.44489 0.000244203 9.88699 0.000244203H10.0607ZM24.1289 4.98989C23.4815 4.76726 22.771 5.1162 22.5341 5.77935C22.3131 6.44249 22.6605 7.1688 23.3236 7.40406C24.3357 7.783 25.0131 8.7793 25.0131 9.88296V9.93191C24.9831 10.2935 25.092 10.6424 25.313 10.9108C25.5341 11.1793 25.8657 11.3356 26.213 11.3687C26.8604 11.3514 27.413 10.8319 27.4604 10.1672V9.97928C27.5077 7.76721 26.1672 5.76356 24.1289 4.98989Z" fill="#EF4870"/>
</svg>
