<svg width="32" height="30" viewBox="0 0 32 30" fill="none" xmlns="http://www.w3.org/2000/svg">
<path d="M15.9433 1.6418C18.541 -0.0191924 21.7204 -0.444149 24.6508 0.477954C27.1995 1.27057 29.3189 3.09118 30.5161 5.51657C31.9161 8.45618 32.1067 11.8434 31.0456 14.9267C30.0689 17.7651 28.4676 20.3383 26.3644 22.4491C24.9854 23.8665 23.4994 25.1716 21.9201 26.3523L21.8365 26.4233C21.3118 26.7765 20.6063 26.6378 20.2483 26.111C20.0663 25.8566 19.9932 25.538 20.0457 25.2277C20.0982 24.9175 20.2718 24.6422 20.5269 24.4646C22.0088 23.348 23.406 22.1192 24.7065 20.7885C26.5795 18.9454 28.0098 16.6868 28.8861 14.1887C29.729 11.6993 29.5584 8.96978 28.4124 6.60945C27.4902 4.75264 25.8654 3.35866 23.9124 2.74888C21.4214 1.95534 18.7075 2.43639 16.626 4.04047C16.2122 4.35275 15.6466 4.35275 15.2328 4.04047C13.1522 2.43416 10.4372 1.95291 7.94635 2.74888C5.98026 3.34519 4.33922 4.73495 3.40452 6.59525C2.28441 8.95384 2.12417 11.6677 2.9587 14.1461C3.83874 16.6383 5.26867 18.8914 7.13829 20.7318C9.90086 23.4303 12.9472 25.8103 16.2219 27.8284C16.6384 28.1227 16.8216 28.6568 16.6757 29.1513C16.5297 29.6458 16.0878 29.9884 15.5811 30C15.3526 30.0013 15.1292 29.9321 14.9402 29.8013C11.5288 27.6994 8.35627 25.2194 5.48039 22.4066C3.36547 20.3027 1.75834 17.7277 0.785313 14.8841C-0.239136 11.8051 -0.028842 8.43848 1.37046 5.51657C2.56774 3.09118 4.68708 1.27057 7.23582 0.477954C10.1662 -0.444149 13.3456 -0.0191924 15.9433 1.6418ZM22.0734 6.31139C24.1508 6.97947 25.6294 8.85545 25.8211 11.0661L25.83 11.2514C25.8226 11.4974 25.7386 11.7365 25.5878 11.9329C25.3992 12.1783 25.1219 12.3365 24.818 12.3719C24.1799 12.4559 23.595 11.9995 23.5084 11.35C23.4501 10.0383 22.5927 8.90391 21.3628 8.51135C20.9056 8.2205 20.7025 7.64907 20.871 7.1274C21.0394 6.60574 21.5359 6.2688 22.0734 6.31139Z" fill="black"/>
</svg>
