<svg width="31" height="30" viewBox="0 0 31 30" fill="none" xmlns="http://www.w3.org/2000/svg">
<path d="M15.175 0C23.695 0 30.145 6.98548 30.145 14.9775C30.145 24.2464 22.585 30 15.145 30C12.685 30 9.95502 29.339 7.76502 28.0471C7.00002 27.5814 6.35502 27.2359 5.53002 27.5063L2.50002 28.4076C1.73502 28.648 1.04502 28.0471 1.27002 27.2359L2.27502 23.8708C2.44002 23.4051 2.41002 22.9094 2.17002 22.5188C0.88002 20.1452 0.14502 17.5463 0.14502 15.0225C0.14502 7.12068 6.46002 0 15.175 0ZM22.03 13.1147C20.965 13.1147 20.11 13.971 20.11 15.0376C20.11 16.0891 20.965 16.9604 22.03 16.9604C23.095 16.9604 23.95 16.0891 23.95 15.0376C23.95 13.971 23.095 13.1147 22.03 13.1147ZM15.115 13.1147C14.065 13.0996 13.195 13.971 13.195 15.0225C13.195 16.0891 14.05 16.9454 15.115 16.9604C16.18 16.9604 17.035 16.0891 17.035 15.0376C17.035 13.971 16.18 13.1147 15.115 13.1147ZM8.20002 13.1147C7.13502 13.1147 6.28002 13.971 6.28002 15.0376C6.28002 16.0891 7.15002 16.9604 8.20002 16.9604C9.26502 16.9454 10.12 16.0891 10.12 15.0376C10.12 13.971 9.26502 13.1147 8.20002 13.1147Z" fill="#EF4870"/>
</svg>
