<svg width="31" height="30" viewBox="0 0 31 30" fill="none" xmlns="http://www.w3.org/2000/svg">
<path d="M15.1547 0C17.5813 0 19.9986 0.598599 22.1465 1.73105C29.4594 5.58957 32.2717 14.6782 28.4158 21.9936C25.7858 26.9819 20.6076 30 15.1375 30C14.0688 30 12.9896 29.885 11.9157 29.6472C11.3107 29.5124 10.9289 28.9125 11.0623 28.3073C11.1957 27.7021 11.7941 27.3228 12.4031 27.4536C17.9894 28.6958 23.7568 26.0146 26.4291 20.9457C29.7077 14.7271 27.3168 6.99819 21.099 3.71845C19.2734 2.75514 17.218 2.2464 15.1533 2.2464C8.10996 2.2464 2.39019 7.96679 2.39019 14.998C2.38754 17.0462 2.88687 19.0851 3.834 20.8968L4.12197 21.4597C4.47467 22.1204 4.5526 22.941 4.32408 23.6837C4.00837 24.5161 3.7455 25.3262 3.52886 26.1322C4.37163 25.8785 5.40066 25.5046 6.14436 25.2337L6.44951 25.124C7.02677 24.9086 7.67536 25.2138 7.88672 25.7979C8.09807 26.3807 7.79557 27.0255 7.21302 27.2356L6.91184 27.3453C5.79959 27.7483 4.27784 28.302 3.25013 28.5319C3.16295 28.5504 3.06916 28.5623 2.9833 28.5597C2.29376 28.5597 1.87369 28.2808 1.64252 28.0456C1.28718 27.6849 1.1181 27.1788 1.13791 26.5419C1.14056 26.4692 1.1498 26.3939 1.16697 26.3212C1.43381 25.1848 1.78122 24.051 2.20129 22.9529C2.23167 22.8459 2.21318 22.6516 2.12732 22.4891L1.83802 21.9275C0.729736 19.8053 0.141907 17.4043 0.14454 14.9967C0.14454 6.7273 6.8709 0 15.1375 0H15.1547ZM15.138 13.2142C16.1221 13.2142 16.9213 14.015 16.9213 14.9981C16.9213 15.9813 16.1221 16.7821 15.138 16.7821C14.1539 16.7821 13.3547 15.9813 13.3547 14.9981C13.3547 14.015 14.1539 13.2142 15.138 13.2142ZM21.7428 13.2142C22.7269 13.2142 23.5261 14.015 23.5261 14.9981C23.5261 15.9813 22.7269 16.7821 21.7428 16.7821C20.7587 16.7821 19.9595 15.9813 19.9595 14.9981C19.9595 14.015 20.7587 13.2142 21.7428 13.2142ZM8.53306 13.2148C9.51718 13.2148 10.3164 14.0142 10.3164 14.9987C10.3164 15.9818 9.51718 16.7813 8.53306 16.7813C7.54894 16.7813 6.74976 15.9818 6.74976 14.9987C6.74976 14.0142 7.54894 13.2148 8.53306 13.2148Z" fill="black"/>
</svg>
