<svg width="25" height="25" viewBox="0 0 25 25" fill="none" xmlns="http://www.w3.org/2000/svg">
<path fill-rule="evenodd" clip-rule="evenodd" d="M8.75 1.5C8.75 0.947715 9.19771 0.5 9.75 0.5H23.5C24.0523 0.5 24.5 0.947715 24.5 1.5V7V19.375C24.5 20.7342 23.96 22.0378 22.9989 22.9989C22.0378 23.96 20.7342 24.5 19.375 24.5C18.0158 24.5 16.7122 23.96 15.7511 22.9989C14.79 22.0378 14.25 20.7342 14.25 19.375C14.25 18.0158 14.79 16.7122 15.7511 15.7511C16.7122 14.79 18.0158 14.25 19.375 14.25C20.5115 14.25 21.609 14.6275 22.5 15.313V8H10.75V19.375C10.75 20.7342 10.21 22.0378 9.24892 22.9989C8.2878 23.96 6.98423 24.5 5.625 24.5C4.26577 24.5 2.9622 23.96 2.00108 22.9989C1.03995 22.0378 0.5 20.7342 0.5 19.375C0.5 18.0158 1.03995 16.7122 2.00108 15.7511C2.9622 14.79 4.26577 14.25 5.625 14.25C6.76145 14.25 7.85899 14.6275 8.75 15.313V7V1.5ZM10.75 6H22.5V2.5H10.75V6ZM21.5847 17.1653C22.1708 17.7513 22.5 18.5462 22.5 19.375C22.5 20.2038 22.1708 20.9987 21.5847 21.5847C20.9987 22.1708 20.2038 22.5 19.375 22.5C18.5462 22.5 17.7513 22.1708 17.1653 21.5847C16.5792 20.9987 16.25 20.2038 16.25 19.375C16.25 18.5462 16.5792 17.7513 17.1653 17.1653C17.7513 16.5792 18.5462 16.25 19.375 16.25C20.2038 16.25 20.9987 16.5792 21.5847 17.1653ZM7.83471 17.1653C8.42076 17.7513 8.75 18.5462 8.75 19.375C8.75 20.2038 8.42076 20.9987 7.83471 21.5847C7.24866 22.1708 6.4538 22.5 5.625 22.5C4.7962 22.5 4.00134 22.1708 3.41529 21.5847C2.82924 20.9987 2.5 20.2038 2.5 19.375C2.5 18.5462 2.82924 17.7513 3.41529 17.1653C4.00134 16.5792 4.7962 16.25 5.625 16.25C6.4538 16.25 7.24866 16.5792 7.83471 17.1653Z" fill="#FDFDFD"/>
</svg>
