<svg width="24" height="23" viewBox="0 0 24 23" fill="none" xmlns="http://www.w3.org/2000/svg">
<path fill-rule="evenodd" clip-rule="evenodd" d="M8.1762 2.78731C8.21787 2.74563 8.2744 2.72222 8.33333 2.72222H15.6667C15.7256 2.72222 15.7821 2.74563 15.8238 2.78731C15.8655 2.82899 15.8889 2.88551 15.8889 2.94444C15.8889 3.85797 16.2518 4.73408 16.8977 5.38003C17.5437 6.02599 18.4198 6.38889 19.3333 6.38889H20.5556C20.9386 6.38889 21.306 6.54107 21.5769 6.81196C21.8478 7.08284 22 7.45024 22 7.83333V18.8333C22 19.2164 21.8478 19.5838 21.5769 19.8547C21.306 20.1256 20.9386 20.2778 20.5556 20.2778H3.44444C3.06135 20.2778 2.69395 20.1256 2.42307 19.8547C2.15218 19.5838 2 19.2164 2 18.8333V7.83333C2 7.45024 2.15218 7.08284 2.42307 6.81196C2.69395 6.54107 3.06135 6.38889 3.44444 6.38889H4.66667C5.58019 6.38889 6.4563 6.02599 7.10226 5.38003C7.74822 4.73408 8.11111 3.85797 8.11111 2.94444C8.11111 2.88551 8.13452 2.82899 8.1762 2.78731ZM8.33333 0.722222C7.74396 0.722222 7.17873 0.956349 6.76199 1.3731C6.34524 1.78984 6.11111 2.35507 6.11111 2.94444C6.11111 3.32754 5.95893 3.69494 5.68804 3.96582C5.41716 4.23671 5.04976 4.38889 4.66667 4.38889H3.44444C2.53092 4.38889 1.65481 4.75178 1.00885 5.39774C0.362896 6.0437 0 6.91981 0 7.83333V18.8333C0 19.7469 0.362896 20.623 1.00885 21.2689C1.65481 21.9149 2.53092 22.2778 3.44444 22.2778H20.5556C21.4691 22.2778 22.3452 21.9149 22.9911 21.2689C23.6371 20.623 24 19.7469 24 18.8333V7.83333C24 6.91981 23.6371 6.0437 22.9911 5.39774C22.3452 4.75178 21.4691 4.38889 20.5556 4.38889H19.3333C18.9502 4.38889 18.5828 4.23671 18.312 3.96582C18.0411 3.69493 17.8889 3.32753 17.8889 2.94444C17.8889 2.35507 17.6548 1.78984 17.238 1.3731C16.8213 0.956349 16.256 0.722222 15.6667 0.722222H8.33333ZM11.9997 8.05555C10.762 8.05555 9.57501 8.54722 8.69984 9.42239C7.82467 10.2976 7.33301 11.4845 7.33301 12.7222C7.33301 13.9599 7.82467 15.1469 8.69984 16.0221C9.57501 16.8972 10.762 17.3889 11.9997 17.3889C13.2374 17.3889 14.4243 16.8972 15.2995 16.0221C16.1747 15.1469 16.6663 13.9599 16.6663 12.7222C16.6663 11.4845 16.1747 10.2976 15.2995 9.42239C14.4243 8.54722 13.2374 8.05555 11.9997 8.05555ZM10.1141 10.8366C10.6142 10.3365 11.2924 10.0556 11.9997 10.0556C12.7069 10.0556 13.3852 10.3365 13.8853 10.8366C14.3854 11.3367 14.6663 12.015 14.6663 12.7222C14.6663 13.4295 14.3854 14.1077 13.8853 14.6078C13.3852 15.1079 12.7069 15.3889 11.9997 15.3889C11.2924 15.3889 10.6142 15.1079 10.1141 14.6078C9.61396 14.1077 9.33301 13.4295 9.33301 12.7222C9.33301 12.015 9.61396 11.3367 10.1141 10.8366Z" fill="#EF4870"/>
</svg>
