<svg width="25" height="30" viewBox="0 0 25 30" fill="none" xmlns="http://www.w3.org/2000/svg">
<path d="M24.1445 24.4951C24.1445 29.4285 17.2962 30 12.1445 30C11.6253 30 11.1136 29.9925 10.6109 29.9775C10.0132 29.9625 9.54227 29.466 9.56038 28.8705C9.57698 28.2765 10.0932 27.8296 10.6728 27.8251C11.1559 27.8386 11.6464 27.8446 12.1445 27.8446C18.6683 27.8446 21.977 26.7181 21.977 24.4951C21.977 22.2512 18.6683 21.1127 12.1445 21.1127C5.62076 21.1127 2.31208 22.2407 2.31208 24.4651C2.31208 25.1926 2.5717 26.2471 4.82529 27.0061C5.39283 27.1966 5.69623 27.8071 5.50453 28.3695C5.31132 28.932 4.69849 29.2395 4.12944 29.0445C0.835852 27.9361 0.144531 25.9426 0.144531 24.4651C0.144531 19.631 6.71616 18.9839 11.8271 18.9595L12.7158 18.9598C16.1242 18.9772 24.1445 19.2782 24.1445 24.4951ZM12.1445 0C16.6004 0 20.2245 3.60291 20.2245 8.0308C20.2245 12.4572 16.6004 16.0601 12.1445 16.0601C7.68868 16.0601 4.06302 12.4572 4.06302 8.0308C4.06302 3.60291 7.68868 0 12.1445 0ZM12.1445 2.15545C8.88415 2.15545 6.23208 4.79088 6.23208 8.0308C6.23208 11.2692 8.88415 13.9047 12.1445 13.9047C15.4049 13.9047 18.057 11.2692 18.057 8.0308C18.057 4.79088 15.4049 2.15545 12.1445 2.15545Z" fill="black"/>
</svg>
