<svg width="25" height="17" viewBox="0 0 25 17" fill="none" xmlns="http://www.w3.org/2000/svg">
<path fill-rule="evenodd" clip-rule="evenodd" d="M13.6001 0.350006C13.0478 0.350006 12.6001 0.797721 12.6001 1.35001C12.6001 1.90229 13.0478 2.35001 13.6001 2.35001H15.1821L16.3821 4.75H11.9501H11.9497H5.8999C5.34762 4.75 4.8999 5.19772 4.8999 5.75C4.8999 6.30228 5.34762 6.75 5.8999 6.75H9.53569L7.37754 8.90815C6.63805 8.35435 5.73472 8.05002 4.8 8.05002C3.65957 8.05002 2.56585 8.50305 1.75944 9.30946C0.953034 10.1159 0.5 11.2096 0.5 12.35C0.5 13.4904 0.953034 14.5842 1.75944 15.3906C2.56585 16.197 3.65957 16.65 4.8 16.65C5.94043 16.65 7.03415 16.197 7.84056 15.3906C8.64697 14.5842 9.1 13.4904 9.1 12.35C9.1 11.9403 9.04152 11.5365 8.92917 11.15H13.0499C13.3151 11.15 13.5695 11.0446 13.757 10.8571L17.5427 7.07137L18.2626 8.51114C17.8585 8.71507 17.4854 8.98337 17.1593 9.30946C16.3529 10.1159 15.8999 11.2096 15.8999 12.35C15.8999 13.4904 16.3529 14.5842 17.1593 15.3906C17.9657 16.197 19.0595 16.65 20.1999 16.65C21.3403 16.65 22.4341 16.197 23.2405 15.3906C24.0469 14.5842 24.4999 13.4904 24.4999 12.35C24.4999 11.2096 24.0469 10.1159 23.2405 9.30946C22.4502 8.51921 21.3841 8.06832 20.2684 8.05056L18.3445 4.20279L16.6945 0.902793C16.5251 0.564008 16.1789 0.350006 15.8001 0.350006H13.6001ZM12.3641 6.75L9.96412 9.15H12.6357L15.0357 6.75H12.3641ZM3.17365 10.7237C3.60499 10.2923 4.19 10.05 4.8 10.05C5.41 10.05 5.99501 10.2923 6.42635 10.7237C6.85768 11.155 7.1 11.74 7.1 12.35C7.1 12.96 6.85768 13.545 6.42635 13.9764C5.99501 14.4077 5.41 14.65 4.8 14.65C4.19 14.65 3.60499 14.4077 3.17365 13.9764C2.74232 13.545 2.5 12.96 2.5 12.35C2.5 11.74 2.74232 11.155 3.17365 10.7237ZM18.5736 10.7237C19.0049 10.2923 19.5899 10.05 20.1999 10.05C20.8099 10.05 21.3949 10.2923 21.8262 10.7237C22.2576 11.155 22.4999 11.74 22.4999 12.35C22.4999 12.96 22.2576 13.545 21.8262 13.9764C21.3949 14.4077 20.8099 14.65 20.1999 14.65C19.5899 14.65 19.0049 14.4077 18.5736 13.9764C18.1422 13.545 17.8999 12.96 17.8999 12.35C17.8999 11.74 18.1422 11.155 18.5736 10.7237Z" fill="#FDFDFD"/>
</svg>
