<svg width="24" height="25" viewBox="0 0 24 25" fill="none" xmlns="http://www.w3.org/2000/svg">
<path fill-rule="evenodd" clip-rule="evenodd" d="M7.4078 1.41345C8.8637 0.810392 10.4241 0.500003 12 0.5C12 0.5 12 0.5 12 0.5C13.5759 0.5 15.1363 0.810389 16.5922 1.41345C18.0481 2.0165 19.371 2.90042 20.4853 4.01472C21.5996 5.12902 22.4835 6.45189 23.0866 7.9078C23.1438 8.04611 23.1985 8.18536 23.2505 8.32549C23.2776 8.37156 23.3013 8.42041 23.3212 8.47185C23.3489 8.54312 23.3678 8.61563 23.3785 8.68819C23.7895 9.91517 24 11.2024 24 12.5C24 14.0759 23.6896 15.6363 23.0866 17.0922C22.4835 18.5481 21.5996 19.871 20.4853 20.9853C19.371 22.0996 18.0481 22.9835 16.5922 23.5866C15.1363 24.1896 13.5759 24.5 12 24.5C10.4241 24.5 8.86371 24.1896 7.4078 23.5866C5.95189 22.9835 4.62902 22.0996 3.51472 20.9853C2.40042 19.871 1.5165 18.5481 0.913445 17.0922C0.310389 15.6363 0 14.0759 0 12.5C0 11.2025 0.210434 9.91537 0.62141 8.68848C0.632112 8.61582 0.651036 8.54322 0.678706 8.47185C0.698685 8.42032 0.722466 8.37138 0.749605 8.32524C0.80157 8.1852 0.856189 8.04603 0.913445 7.9078C1.5165 6.45189 2.40042 5.12902 3.51472 4.01472C4.62902 2.90042 5.95189 2.0165 7.4078 1.41345ZM2.27669 10.1639C2.0933 10.9272 2 11.7113 2 12.5C2 13.8132 2.25866 15.1136 2.7612 16.3268C3.26375 17.5401 4.00035 18.6425 4.92893 19.5711C4.98478 19.6269 5.04127 19.6821 5.09836 19.7365L7.24441 17.2635L5.37378 11.3647L2.27669 10.1639ZM6.03607 9.47638L2.93652 8.27468C3.42907 7.21814 4.10307 6.2548 4.92893 5.42893C5.85752 4.50035 6.95991 3.76375 8.17317 3.2612C9.0773 2.8867 10.0298 2.64764 11 2.55013V5.87859L6.03607 9.47638ZM13 5.87868L17.9638 9.47641L21.0635 8.27466C20.5709 7.21813 19.8969 6.25479 19.0711 5.42893C18.1425 4.50035 17.0401 3.76375 15.8268 3.2612C14.9227 2.88669 13.9701 2.64763 13 2.55012V5.87868ZM21.7233 10.1639L18.626 11.3647L16.7853 17.1692L18.9145 19.7243C18.9672 19.6738 19.0194 19.6227 19.0711 19.5711C19.9997 18.6425 20.7362 17.5401 21.2388 16.3268C21.7413 15.1136 22 13.8132 22 12.5C22 11.7113 21.9067 10.9272 21.7233 10.1639ZM17.3377 20.9563L15.1983 18.3889H8.91591L6.67887 20.9667C7.15329 21.2649 7.65304 21.5234 8.17317 21.7388C9.38642 22.2413 10.6868 22.5 12 22.5C13.3132 22.5 14.6136 22.2413 15.8268 21.7388C16.353 21.5208 16.8584 21.2588 17.3377 20.9563ZM7.3536 10.9915L9.0652 16.3889H14.9346L16.6462 10.9915L11.9999 7.62392L7.3536 10.9915Z" fill="#EF4870"/>
</svg>
