<svg width="25" height="13" viewBox="0 0 25 13" fill="none" xmlns="http://www.w3.org/2000/svg">
<path fill-rule="evenodd" clip-rule="evenodd" d="M15.8176 0.650569C16.2343 0.233822 16.7996 -0.000305176 17.3889 -0.000305176C17.9783 -0.000305176 18.5435 0.233821 18.9603 0.650569C19.377 1.06732 19.6112 1.63255 19.6112 2.22192C19.6112 2.81129 19.377 3.37652 18.9603 3.79327C18.5435 4.21001 17.9783 4.44414 17.3889 4.44414C16.7996 4.44414 16.2343 4.21001 15.8176 3.79327C15.4009 3.37652 15.1667 2.81129 15.1667 2.22192C15.1667 1.63255 15.4009 1.06732 15.8176 0.650569ZM17.3889 1.99969C17.33 1.99969 17.2735 2.02311 17.2318 2.06478C17.1901 2.10646 17.1667 2.16298 17.1667 2.22192C17.1667 2.28085 17.1901 2.33738 17.2318 2.37905C17.2735 2.42073 17.33 2.44414 17.3889 2.44414C17.4479 2.44414 17.5044 2.42073 17.5461 2.37905C17.5878 2.33738 17.6112 2.28086 17.6112 2.22192C17.6112 2.16298 17.5878 2.10646 17.5461 2.06478C17.5044 2.02311 17.4479 1.99969 17.3889 1.99969ZM9.6084 1.3275C9.96827 1.14756 10.4009 1.20083 10.7064 1.46267L14.9842 5.12933C15.3843 5.47231 15.4496 6.06697 15.1334 6.48859L13.3001 8.93303C12.9687 9.37486 12.3419 9.46441 11.9001 9.13303C11.4582 8.80166 11.3687 8.17486 11.7001 7.73304L12.9712 6.03812L9.90895 3.41329L5.61394 5.5608C5.11996 5.80779 4.51929 5.60756 4.2723 5.11358C4.02531 4.6196 4.22553 4.01893 4.71951 3.77194L9.6084 1.3275ZM6.68504 10.7587C6.96574 10.6183 7.27638 10.5484 7.59014 10.555C7.6041 10.5553 7.61807 10.5553 7.63203 10.555C7.94579 10.5484 8.25644 10.6183 8.53713 10.7587C8.81783 10.899 9.06014 11.1056 9.24314 11.3605C9.61545 11.8792 10.1084 12.2995 10.6795 12.585C11.2443 12.8675 11.8688 13.0097 12.5 12.9998C13.1312 13.0097 13.7556 12.8675 14.3204 12.585C14.8915 12.2995 15.3845 11.8792 15.7568 11.3605C15.9398 11.1056 16.1821 10.899 16.4628 10.7587C16.7435 10.6183 17.0542 10.5484 17.3679 10.555C17.3819 10.5553 17.3958 10.5553 17.4098 10.555C17.7236 10.5484 18.0342 10.6183 18.3149 10.7587C18.5956 10.899 18.8379 11.1056 19.0209 11.3605C19.3932 11.8792 19.8862 12.2995 20.4573 12.585C21.0284 12.8706 21.6604 13.0128 22.2987 12.9994L22.3063 12.9992C22.8758 12.983 23.435 12.8432 23.9452 12.5895C24.4397 12.3436 24.6413 11.7434 24.3954 11.2489C24.1495 10.7544 23.5493 10.5528 23.0548 10.7987C22.8051 10.9228 22.5316 10.9914 22.253 10.9999C21.9405 11.0059 21.6313 10.936 21.3517 10.7962C21.071 10.6558 20.8287 10.4493 20.6457 10.1943C20.2734 9.67562 19.7804 9.25536 19.2093 8.96982C18.6445 8.6874 18.0201 8.54519 17.3889 8.55505C16.7576 8.54519 16.1332 8.6874 15.5684 8.96982C14.9973 9.25536 14.5043 9.67562 14.132 10.1943C13.949 10.4493 13.7067 10.6558 13.426 10.7962C13.1453 10.9365 12.8347 11.0064 12.5209 10.9999C12.507 10.9996 12.493 10.9996 12.479 10.9999C12.1653 11.0064 11.8546 10.9365 11.5739 10.7962C11.2932 10.6558 11.0509 10.4493 10.8679 10.1943C10.4956 9.67562 10.0026 9.25536 9.43156 8.96982C8.86673 8.6874 8.2423 8.54519 7.61109 8.55505C6.97987 8.54519 6.35544 8.6874 5.79062 8.96982C5.21954 9.25536 4.72656 9.67562 4.35425 10.1943C4.17125 10.4493 3.92894 10.6558 3.64824 10.7962C3.36868 10.936 3.05941 11.0059 2.74694 10.9999C2.46832 10.9914 2.19482 10.9228 1.94519 10.7987C1.45066 10.5528 0.850434 10.7544 0.604551 11.2489C0.358668 11.7434 0.560236 12.3436 1.05477 12.5895C1.56494 12.8432 2.12413 12.983 2.69366 12.9992L2.69365 12.9993L2.70126 12.9994C3.3396 13.0128 3.9716 12.8706 4.54267 12.585C5.11375 12.2995 5.60673 11.8792 5.97903 11.3605C6.16203 11.1056 6.40434 10.899 6.68504 10.7587Z" fill="#FDFDFD"/>
</svg>
