<svg width="23" height="28" viewBox="0 0 23 28" fill="none" xmlns="http://www.w3.org/2000/svg">
<path fill-rule="evenodd" clip-rule="evenodd" d="M10.178 2.54758C10.5287 2.19697 11.0042 2 11.5 2C11.9959 2 12.4714 2.19697 12.822 2.54758C13.1726 2.89819 13.3696 3.37373 13.3696 3.86957V4.31418C13.2251 4.30764 13.0801 4.30435 12.9348 4.30435H10.0652C9.91994 4.30435 9.77498 4.30764 9.63046 4.31418V3.86957C9.63046 3.37373 9.82743 2.89819 10.178 2.54758ZM7.63046 4.61792V3.86957C7.63046 2.84329 8.03814 1.85905 8.76383 1.13337C9.48951 0.407685 10.4737 0 11.5 0C12.5263 0 13.5105 0.407685 14.2362 1.13337C14.9619 1.85905 15.3696 2.84329 15.3696 3.86957V4.61792C17.005 5.04635 18.5132 5.90274 19.7292 7.11867C21.5312 8.92065 22.5435 11.3647 22.5435 13.913V22.5217C22.5435 23.9285 21.9847 25.2777 20.9899 26.2725C19.9951 27.2672 18.646 27.8261 17.2392 27.8261H15.8044H7.19567H5.76089C4.35409 27.8261 3.00491 27.2672 2.01015 26.2725C1.01539 25.2777 0.456543 23.9285 0.456543 22.5217V13.913C0.456543 11.3647 1.46889 8.92065 3.27086 7.11867C4.4868 5.90274 5.99506 5.04635 7.63046 4.61792ZM17.2392 25.8261H16.8044V21.087C16.8044 20.0607 16.3967 19.0764 15.671 18.3508C14.9453 17.6251 13.9611 17.2174 12.9348 17.2174H10.0652C9.03897 17.2174 8.05473 17.6251 7.32904 18.3508C6.60336 19.0764 6.19567 20.0607 6.19567 21.087V25.8261H5.76089C4.88452 25.8261 4.04405 25.478 3.42436 24.8583C2.80468 24.2386 2.45654 23.3981 2.45654 22.5217V13.913C2.45654 11.8951 3.25817 9.95979 4.68508 8.53288C6.11199 7.10598 8.04729 6.30435 10.0652 6.30435H12.9348C14.9528 6.30435 16.8881 7.10598 18.315 8.53288C19.7419 9.95979 20.5435 11.8951 20.5435 13.913V22.5217C20.5435 23.3981 20.1954 24.2386 19.5757 24.8583C18.956 25.478 18.1155 25.8261 17.2392 25.8261ZM8.19567 21.087V25.8261H14.8044V21.087C14.8044 20.5911 14.6074 20.1156 14.2568 19.765C13.9062 19.4144 13.4306 19.2174 12.9348 19.2174H10.0652C9.5694 19.2174 9.09387 19.4144 8.74326 19.765C8.39264 20.1156 8.19567 20.5911 8.19567 21.087ZM10.0652 10.0435C9.51295 10.0435 9.06524 10.4912 9.06524 11.0435C9.06524 11.5958 9.51295 12.0435 10.0652 12.0435H12.9348C13.4871 12.0435 13.9348 11.5958 13.9348 11.0435C13.9348 10.4912 13.4871 10.0435 12.9348 10.0435H10.0652Z" fill="#FDFDFD"/>
</svg>
