<svg width="25" height="19" viewBox="0 0 25 19" fill="none" xmlns="http://www.w3.org/2000/svg">
<path fill-rule="evenodd" clip-rule="evenodd" d="M8.73351 2.25843C7.69436 2.25819 6.68724 2.61802 5.88352 3.2767C5.07984 3.93534 4.5292 4.8521 4.32529 5.87099L4.32526 5.87114L2.52968 14.8524L2.52966 14.8524C2.46471 15.1772 2.50708 15.5143 2.65038 15.8129C2.79367 16.1115 3.03014 16.3554 3.32413 16.5079C3.61813 16.6604 3.95373 16.7132 4.28035 16.6584C4.60698 16.6036 4.90694 16.4441 5.13503 16.2039L5.13504 16.2039L9.54716 11.5588C9.73596 11.3601 9.99808 11.2475 10.2722 11.2475H14.6641H14.6715H16.3162C17.5082 11.2475 18.6514 10.774 19.4943 9.93109C20.3372 9.0882 20.8108 7.945 20.8108 6.75297C20.8108 6.56681 20.7992 6.38183 20.7765 6.19901L20.7139 5.87672C20.7056 5.83432 20.7002 5.79202 20.6974 5.75002C20.5103 4.9328 20.0966 4.17715 19.4943 3.57485C18.6514 2.73196 17.5082 2.25843 16.3162 2.25843H12.47H8.73374H8.73351ZM10.7016 13.2475H14.2387L18.4155 17.644L18.4157 17.6441C18.9413 18.1973 19.6322 18.565 20.3846 18.6922C21.137 18.8194 21.9104 18.6992 22.5887 18.3496C23.267 18 23.8136 17.4399 24.1466 16.7532C24.4796 16.0666 24.5809 15.2906 24.4354 14.5415L24.4354 14.5413L22.7516 5.87858C22.5615 4.47901 21.9185 3.17062 20.9085 2.16064C19.6906 0.942675 18.0387 0.25843 16.3162 0.25843H12.47H8.73398H8.73374C7.23228 0.258131 5.77709 0.778079 4.61579 1.72981C3.45442 2.68159 2.65874 4.00638 2.36413 5.47874L2.3641 5.4789L0.568498 14.4602L0.568486 14.4603C0.418512 15.2103 0.516351 15.9887 0.847263 16.6782C1.17818 17.3677 1.72426 17.9311 2.40319 18.2832C3.08213 18.6354 3.85714 18.7574 4.61143 18.6308C5.36572 18.5042 6.05843 18.1358 6.58515 17.5813L6.58517 17.5813L10.7016 13.2475ZM19.8654 16.2663L16.9664 13.2149C18.4501 13.0657 19.8448 12.409 20.9085 11.3453C21.1686 11.0852 21.4043 10.8054 21.6143 10.5093L22.4721 14.9228L22.4721 14.9229C22.5351 15.2473 22.4912 15.5833 22.347 15.8806C22.2029 16.1779 21.9661 16.4204 21.6724 16.5718C21.3787 16.7232 21.0438 16.7753 20.718 16.7202C20.3922 16.6651 20.0931 16.5059 19.8655 16.2665L19.8654 16.2663ZM9.07446 5.65406C9.07446 5.10178 8.62675 4.65406 8.07446 4.65406C7.52218 4.65406 7.07446 5.10178 7.07446 5.65406V5.75298H6.97559C6.4233 5.75298 5.97559 6.20069 5.97559 6.75298C5.97559 7.30526 6.4233 7.75298 6.97559 7.75298H7.07446V7.85188C7.07446 8.40416 7.52218 8.85188 8.07446 8.85188C8.62675 8.85188 9.07446 8.40416 9.07446 7.85188V7.75298H9.1734C9.72569 7.75298 10.1734 7.30526 10.1734 6.75298C10.1734 6.20069 9.72569 5.75298 9.1734 5.75298H9.07446V5.65406ZM14.668 5.75298C14.1157 5.75298 13.668 6.20069 13.668 6.75298C13.668 7.30526 14.1157 7.75298 14.668 7.75298H16.8658C17.4181 7.75298 17.8658 7.30526 17.8658 6.75298C17.8658 6.20069 17.4181 5.75298 16.8658 5.75298H14.668Z" fill="#FDFDFD"/>
</svg>
